<svg width="396" height="201" viewBox="0 0 396 201" fill="none" xmlns="http://www.w3.org/2000/svg">
<g opacity="0.4">
<path d="M311.302 0.815735L353.208 30.8305L395.326 200.028H0.253906L311.302 0.815735Z" fill="#FFCF2D"/>
<path d="M286.06 50.819V154.551C286.06 160.129 279.962 164.639 272.466 164.639H112.484C102.447 174.901 81.758 174.948 71.637 164.639L71.615 164.624C67.592 164.419 64.035 162.895 61.748 160.648L248.982 40.7303H272.466C279.962 40.7303 286.06 45.2561 286.06 50.819Z" fill="#FFCF2D"/>
<path d="M42.626 187.017C39.81 187.96 36.4 187.818 33.245 186.796V200.028H0.27491L38.073 175.828L47.369 169.967C50.08 178.547 48.576 184.99 42.626 187.017Z" fill="#FFCF2D"/>
</g>
</svg>
