<svg width="33" height="23" viewBox="0 0 33 23" fill="none" xmlns="http://www.w3.org/2000/svg">
<path d="M28.2387 22.0626H5.09384C2.63747 22.0626 0.646973 20.0726 0.646973 17.6169V5.31687C0.646973 2.86111 2.63747 0.871094 5.09384 0.871094H28.2387C30.6951 0.871094 32.6856 2.86111 32.6856 5.31687V17.6169C32.6856 20.0726 30.6951 22.0626 28.2387 22.0626ZM5.09384 2.14132C3.33627 2.14132 1.91751 3.55973 1.91751 5.31687V17.6169C1.91751 19.374 3.33627 20.7924 5.09384 20.7924H28.2387C29.9963 20.7924 31.415 19.374 31.415 17.6169V5.31687C31.415 3.55973 29.9963 2.14132 28.2387 2.14132H5.09384Z" fill="#66B0F0"/>
<path d="M17.2482 16.4735H9.41323C8.16388 16.4735 7.14746 15.4574 7.14746 14.2083V8.7252C7.14746 7.47615 8.16388 6.45996 9.41323 6.45996H17.2482C18.4975 6.45996 19.514 7.47615 19.514 8.7252V14.2083C19.514 15.4574 18.4975 16.4735 17.2482 16.4735Z" fill="#66B0F0"/>
<path d="M24.8717 16.3254L22.4577 14.7164C21.8013 14.2719 21.3989 13.5097 21.3989 12.6841V10.2707C21.3989 9.44501 21.8013 8.68288 22.4577 8.2383L24.8717 6.62935C25.4435 6.24829 26.1846 6.67169 26.1846 7.39148V15.5844C26.2058 16.2831 25.4435 16.7065 24.8717 16.3254Z" fill="#66B0F0"/>
</svg>
