<svg width="354" height="246" viewBox="0 0 354 246" fill="none" xmlns="http://www.w3.org/2000/svg">
<g clip-path="url(#clip0_2234_9993)">
<path d="M337.002 211.79V246.001H285.534L295.562 193.467C295.241 195.541 301.66 199.429 310.444 203.329C313.596 204.728 317.112 206.118 320.866 207.435C326.922 209.571 332.501 211.023 337.002 211.79C336.992 211.79 337.002 211.79 337.002 211.79Z" fill="#9A3B82"/>
<path d="M337.002 201.503V210.659C332.501 209.892 326.932 208.451 320.855 206.314C306.534 201.285 295.51 195.073 296.133 192.284C296.143 192.242 296.153 192.201 296.164 192.17C297.128 189.443 309.811 191.33 324.33 196.422C328.996 198.06 333.207 199.75 336.743 201.378C336.826 201.42 336.909 201.461 337.002 201.503Z" fill="#FFCF2D"/>
<path d="M329.94 122.236C324.92 122.236 320.855 126.301 320.855 131.31V156.177C320.855 161.186 316.79 165.251 311.781 165.251H275.402C280.421 165.251 284.476 161.186 284.476 156.177V131.31C284.476 126.291 288.541 122.236 293.55 122.236H329.94Z" fill="white"/>
<path fill-rule="evenodd" clip-rule="evenodd" d="M293.55 122.495C288.684 122.495 284.735 126.434 284.735 131.309V156.176C284.735 160.251 282.125 163.719 278.479 164.991H311.781C316.647 164.991 320.596 161.042 320.596 156.176V131.309C320.596 127.234 323.212 123.766 326.861 122.495H293.55ZM329.94 121.977H293.55C288.398 121.977 284.217 126.147 284.217 131.309V156.176C284.217 161.042 280.278 164.991 275.402 164.991V165.509H311.781C316.933 165.509 321.114 161.328 321.114 156.176V131.309C321.114 126.444 325.063 122.495 329.94 122.495V121.977Z" fill="#FFCF2D"/>
<path d="M314.032 135.105H290.864V156.602H314.032V135.105Z" fill="white"/>
<path fill-rule="evenodd" clip-rule="evenodd" d="M290.605 134.846H314.291V156.861H290.605V134.846ZM291.123 135.364V156.342H313.772V135.364H291.123Z" fill="#FFCF2D"/>
<path fill-rule="evenodd" clip-rule="evenodd" d="M290.864 137.916H314.021V138.435H290.864V137.916Z" fill="#FFCF2D"/>
<path fill-rule="evenodd" clip-rule="evenodd" d="M290.864 140.984H314.021V141.503H290.864V140.984Z" fill="#FFCF2D"/>
<path fill-rule="evenodd" clip-rule="evenodd" d="M290.864 144.064H314.021V144.583H290.864V144.064Z" fill="#FFCF2D"/>
<path fill-rule="evenodd" clip-rule="evenodd" d="M290.864 147.135H314.021V147.653H290.864V147.135Z" fill="#FFCF2D"/>
<path fill-rule="evenodd" clip-rule="evenodd" d="M290.864 150.215H314.021V150.733H290.864V150.215Z" fill="#FFCF2D"/>
<path fill-rule="evenodd" clip-rule="evenodd" d="M290.864 153.283H314.021V153.802H290.864V153.283Z" fill="#FFCF2D"/>
<path d="M320.856 131.31C320.856 126.322 324.88 122.278 329.847 122.236C334.825 122.278 338.838 126.322 338.838 131.31H320.856Z" fill="#66B0F0"/>
<path fill-rule="evenodd" clip-rule="evenodd" d="M329.847 121.977L329.849 121.977C334.969 122.019 339.097 126.179 339.097 131.309V131.569H320.597V131.309C320.597 126.179 324.735 122.019 329.845 121.977L329.847 121.977ZM329.847 122.495C325.109 122.536 321.255 126.325 321.119 131.05H338.575C338.439 126.325 334.595 122.536 329.847 122.495Z" fill="#FFCF2D"/>
<path d="M311.823 165.479C311.813 165.479 311.792 165.479 311.782 165.479H275.537C275.517 165.479 275.496 165.479 275.475 165.479C271.752 165.427 268.568 163.125 267.22 159.869H303.537C304.896 163.125 308.079 165.427 311.823 165.479Z" fill="#FFCF2D"/>
<path d="M292.379 132.635H288.189V129.275H290.16V131.142C290.16 131.183 290.181 131.215 290.201 131.225L290.212 131.235L292.379 132.635Z" fill="#FE5244"/>
<path d="M294.007 130.438V130.884C294.007 130.967 293.997 131.05 293.997 131.133C293.997 131.154 293.986 131.185 293.986 131.205C293.976 131.247 293.976 131.288 293.965 131.33C293.851 131.9 293.509 132.367 293.084 132.543C293.053 132.554 293.022 132.564 292.991 132.574C292.939 132.595 292.877 132.605 292.825 132.616C292.804 132.616 292.783 132.626 292.763 132.626L290.388 131.081C290.408 130.718 290.637 130.428 290.906 130.428H294.007V130.438Z" fill="#FE5244"/>
<path d="M317.144 129.275V132.635H312.954L315.111 131.235L315.122 131.225C315.132 131.215 315.132 131.215 315.142 131.215C315.142 131.204 315.153 131.204 315.153 131.194C315.153 131.194 315.153 131.183 315.163 131.183C315.163 131.173 315.163 131.173 315.173 131.173C315.173 131.173 315.173 131.173 315.173 131.163C315.173 131.152 315.173 131.152 315.173 131.142V129.275H317.144Z" fill="#FE5244"/>
<path d="M314.965 131.092L312.59 132.638C312.528 132.627 312.466 132.617 312.403 132.606C312.383 132.596 312.362 132.596 312.341 132.586C312.31 132.575 312.289 132.565 312.258 132.555C312.238 132.544 312.206 132.534 312.186 132.523C311.864 132.347 311.595 132.005 311.46 131.58C311.439 131.518 311.418 131.455 311.408 131.393C311.398 131.372 311.398 131.341 311.387 131.31C311.366 131.175 311.346 131.041 311.346 130.895V130.449H314.457C314.716 130.439 314.944 130.729 314.965 131.092Z" fill="#FE5244"/>
<path d="M314.966 127.576V130.501C314.945 130.48 314.925 130.449 314.904 130.428C314.862 130.387 314.821 130.355 314.779 130.324C314.676 130.262 314.562 130.221 314.447 130.221H290.896C290.772 130.221 290.658 130.262 290.565 130.324C290.523 130.355 290.482 130.387 290.44 130.428C290.419 130.449 290.399 130.469 290.378 130.501V127.576C290.378 127.182 290.606 126.871 290.896 126.871H314.447C314.727 126.871 314.966 127.193 314.966 127.576Z" fill="#FE5244"/>
<path d="M337.003 170.011V210.66H336.992C332.491 209.893 326.923 208.452 320.846 206.315C317.091 204.998 313.576 203.599 310.423 202.209L312.114 192.772L314.986 176.751C305.974 173.93 304.512 165.261 304.512 165.261H311.761C316.78 165.261 320.835 161.196 320.835 156.188V153.201H316.179C312.912 153.201 310.257 149.986 310.257 146.72V145.662H320.607C322.526 145.662 324.33 146.564 325.481 148.099L333.051 158.21C335.623 161.611 337.003 165.749 337.003 170.011Z" fill="#A0505A"/>
<path d="M337.003 201.503V210.66H336.992C332.491 209.892 326.923 208.451 320.846 206.315C317.091 204.998 313.576 203.598 310.423 202.208L312.114 192.771C315.847 193.684 319.995 194.918 324.309 196.432C328.976 198.07 333.186 199.761 336.712 201.389C336.826 201.42 336.909 201.461 337.003 201.503Z" fill="#73325A"/>
<path d="M321.312 153.201H316.314C313.047 153.201 310.392 149.986 310.392 146.72V145.662H321.312V153.201Z" fill="#A0505A"/>
<path fill-rule="evenodd" clip-rule="evenodd" d="M318.079 163.544C318.079 163.544 318.079 163.544 318.17 163.301C318.262 163.058 318.262 163.059 318.262 163.059L318.262 163.059L318.264 163.059L318.269 163.061C318.273 163.063 318.279 163.065 318.287 163.068C318.302 163.074 318.323 163.083 318.351 163.095C318.407 163.118 318.488 163.153 318.591 163.201C318.796 163.296 319.087 163.441 319.437 163.645C320.138 164.053 321.077 164.694 322.037 165.632C323.96 167.509 325.958 170.569 326.29 175.291L325.773 175.328C325.451 170.748 323.519 167.804 321.675 166.003C320.751 165.101 319.848 164.484 319.176 164.093C318.841 163.898 318.564 163.76 318.372 163.671C318.276 163.626 318.202 163.594 318.152 163.573C318.127 163.563 318.108 163.555 318.096 163.55C318.09 163.548 318.085 163.546 318.082 163.545L318.08 163.544L318.079 163.544ZM318.079 163.544C318.079 163.544 318.079 163.544 318.079 163.544L318.079 163.544Z" fill="#73325A"/>
<path fill-rule="evenodd" clip-rule="evenodd" d="M319.912 177.227H315.007V176.709H319.912V177.227Z" fill="#73325A"/>
<path d="M264.182 202.095V246.001H214.166L220.575 198.32C220.575 200.249 230.333 202.655 242.373 203.692C254.413 204.739 264.182 204.024 264.182 202.095Z" fill="#66B0F0"/>
<path d="M263.954 200.965C263.954 202.894 254.279 203.609 242.353 202.562C230.427 201.515 220.751 199.109 220.751 197.19C220.751 195.262 230.427 194.546 242.353 195.594C254.289 196.631 263.954 199.036 263.954 200.965Z" fill="#3FB1B5"/>
<path fill-rule="evenodd" clip-rule="evenodd" d="M273.739 105.846L270.722 103.893L271.06 103.371L274.1 105.338L274.11 105.346C274.992 106.029 275.295 107.259 275.198 108.768C275.1 110.291 274.591 112.184 273.739 114.315C272.033 118.579 268.92 123.862 264.811 129.156C260.702 134.456 256.36 138.785 252.655 141.499C250.804 142.854 249.097 143.818 247.646 144.292C246.208 144.762 244.941 144.775 244.059 144.093L244.047 144.083L242.543 142.662L242.97 142.21L244.452 143.609C245.085 144.091 246.087 144.147 247.453 143.7C248.815 143.255 250.462 142.333 252.287 140.997C255.934 138.326 260.236 134.042 264.32 128.775L264.32 128.775C268.403 123.513 271.482 118.281 273.161 114.084C274.002 111.983 274.485 110.159 274.577 108.729C274.669 107.293 274.365 106.338 273.739 105.846Z" fill="#66B0F0"/>
<path d="M228.84 152.827L263.218 121.365L275.237 84.7695L238.547 118.109L228.84 152.827Z" fill="#66B0F0"/>
<path fill-rule="evenodd" clip-rule="evenodd" d="M276.806 84.9316C276.969 84.9852 277.058 85.161 277.005 85.3242L264.773 122.578L227.297 156.874C227.17 156.99 226.973 156.981 226.857 156.855C226.741 156.728 226.75 156.531 226.877 156.415L264.233 122.229L276.414 85.1302C276.467 84.9669 276.643 84.878 276.806 84.9316Z" fill="#FE5244"/>
<path fill-rule="evenodd" clip-rule="evenodd" d="M214.013 152.261L246.659 121.037L247.089 121.487L214.443 152.71L214.443 152.711C212.636 154.435 209.682 152.805 210.19 150.349L211.102 145.921L211.102 145.921C211.459 144.198 209.504 142.939 208.085 143.974L208.085 143.975L197.3 151.825L196.934 151.322L207.719 143.472C207.719 143.472 207.719 143.472 207.719 143.472M211.712 146.047C212.184 143.767 209.598 142.101 207.719 143.472L211.712 146.047ZM211.712 146.047L210.799 150.474L210.799 150.475C210.415 152.332 212.646 153.564 214.013 152.261L214.013 152.261" fill="#FE5244"/>
<path d="M188.333 162.751C187.369 163.56 186.404 164.307 185.471 164.96C184.693 164.473 183.978 163.861 183.345 163.114C182.723 162.368 182.235 161.559 181.893 160.708C182.702 159.9 183.594 159.08 184.558 158.261C189.38 154.206 194.13 151.915 195.177 153.159C196.215 154.403 193.155 158.697 188.333 162.751Z" fill="#FFCF2D"/>
<path fill-rule="evenodd" clip-rule="evenodd" d="M196.111 151.386C195.59 151.386 195.168 151.808 195.168 152.33C195.168 152.851 195.59 153.273 196.111 153.273C196.633 153.273 197.055 152.851 197.055 152.33C197.055 151.808 196.633 151.386 196.111 151.386ZM194.545 152.33C194.545 151.465 195.247 150.764 196.111 150.764C196.976 150.764 197.677 151.465 197.677 152.33C197.677 153.194 196.976 153.895 196.111 153.895C195.247 153.895 194.545 153.194 194.545 152.33Z" fill="#FE5244"/>
<path d="M248.419 169.046V202.955C246.501 202.872 244.458 202.748 242.353 202.561C234.585 201.887 227.782 200.622 223.977 199.295L224.547 195.541L226.455 182.941H223.987C220.471 182.941 217.63 180.1 217.63 176.585V164.099C217.63 161.631 218.522 159.257 220.15 157.4L228.27 148.119C228.799 147.518 229.794 147.891 229.794 148.69V161.31C229.794 162.824 229.255 164.286 228.27 165.437L227.544 166.287H236.359C237.634 166.287 238.381 164.867 237.665 163.809C236.577 162.222 235.145 159.962 233.787 157.348C231.08 152.174 235.778 149.281 235.778 149.281L246.532 163.228C247.756 164.918 248.419 166.961 248.419 169.046Z" fill="#FFCF2D"/>
<path fill-rule="evenodd" clip-rule="evenodd" d="M229.795 147.756C229.938 147.756 230.054 147.872 230.054 148.015V161.309C230.054 162.885 229.493 164.407 228.468 165.605L228.467 165.605M228.467 165.605L227.742 166.455C227.649 166.564 227.485 166.577 227.376 166.484C227.267 166.391 227.254 166.227 227.347 166.119L228.073 165.268L228.073 165.268C229.018 164.164 229.536 162.762 229.536 161.309V148.015C229.536 147.872 229.652 147.756 229.795 147.756" fill="white"/>
<path fill-rule="evenodd" clip-rule="evenodd" d="M227.716 166.083C227.823 166.178 227.832 166.342 227.737 166.449L221.909 172.993C221.814 173.1 221.65 173.109 221.543 173.014C221.436 172.919 221.426 172.755 221.522 172.648L227.35 166.104C227.445 165.997 227.609 165.988 227.716 166.083Z" fill="white"/>
<path fill-rule="evenodd" clip-rule="evenodd" d="M229.794 155.273C229.937 155.273 230.053 155.39 230.053 155.533C230.053 157.108 229.492 158.63 228.466 159.828C228.466 159.828 228.466 159.828 228.466 159.828L227.739 160.681L221.919 167.216C221.824 167.323 221.66 167.332 221.553 167.237C221.446 167.142 221.437 166.978 221.532 166.871L227.348 160.34L228.072 159.491C229.017 158.387 229.534 156.985 229.534 155.533C229.534 155.39 229.651 155.273 229.794 155.273Z" fill="white"/>
<path fill-rule="evenodd" clip-rule="evenodd" d="M229.795 149.508C229.938 149.508 230.054 149.624 230.054 149.767C230.054 151.343 229.493 152.865 228.467 154.063C228.467 154.063 228.467 154.063 228.467 154.063L227.74 154.915L221.92 161.45C221.825 161.557 221.661 161.566 221.554 161.471C221.447 161.376 221.438 161.212 221.533 161.105L227.349 154.574L228.073 153.726C229.018 152.622 229.535 151.219 229.535 149.767C229.535 149.624 229.652 149.508 229.795 149.508Z" fill="white"/>
<path fill-rule="evenodd" clip-rule="evenodd" d="M226.195 183.283C226.195 183.14 226.311 183.023 226.454 183.023H230.924C231.067 183.023 231.183 183.14 231.183 183.283C231.183 183.426 231.067 183.542 230.924 183.542H226.454C226.311 183.542 226.195 183.426 226.195 183.283Z" fill="white"/>
<path d="M248.42 196.255V202.954C246.501 202.871 244.458 202.747 242.353 202.56C234.585 201.886 227.782 200.621 223.977 199.294L224.547 195.54C228.446 194.969 234.969 194.938 242.363 195.581C244.458 195.778 246.491 195.996 248.42 196.255Z" fill="#FE5244"/>
<path d="M198.227 245.998H140.392V188.663C140.392 191.11 149.901 193.091 161.64 193.091C173.38 193.091 182.889 191.11 182.889 188.663V188.652L198.227 245.998Z" fill="#3FB1B5"/>
<path d="M182.734 187.523C182.734 189.981 173.328 191.961 161.713 191.961C150.098 191.961 140.692 189.981 140.692 187.533V187.523C140.723 185.086 150.119 183.105 161.713 183.105C173.307 183.105 182.713 185.086 182.734 187.523Z" fill="#66B0F0"/>
<path d="M182.733 187.566C182.661 189.993 173.275 191.963 161.713 191.963C159.483 191.963 157.347 191.89 155.335 191.756V170.425H144.363C142.963 170.425 141.833 169.295 141.833 167.895V166.184C141.833 165.416 142.175 164.732 142.714 164.265C142.175 163.798 141.833 163.114 141.833 162.347V160.636C141.833 159.962 142.102 159.339 142.538 158.894C142.102 158.437 141.833 157.825 141.833 157.151V155.44C141.833 154.746 142.113 154.113 142.569 153.646C142.113 153.19 141.833 152.558 141.833 151.863V148.762C141.833 147.362 142.963 146.232 144.363 146.232H158.373C158.84 145.962 159.597 145.008 158.311 144.448L155.304 143.743C152.918 142.551 151.404 140.57 151.404 137.895H161.982C163.755 137.895 165.342 139.014 165.944 140.684L182.474 186.83L182.733 187.566Z" fill="#E57281"/>
<path d="M182.785 187.587C182.754 187.555 182.733 187.535 182.733 187.535C182.733 189.982 173.327 191.963 161.712 191.963C159.483 191.963 157.346 191.89 155.334 191.755V183.325C157.346 183.19 159.493 183.117 161.712 183.117C172.186 183.117 180.877 184.735 182.474 186.84C182.515 186.892 182.629 187.172 182.785 187.587Z" fill="#9A3B82"/>
<path d="M158.613 117.402V125.812C158.613 130.385 154.91 134.087 150.337 134.087C145.764 134.087 142.062 130.385 142.062 125.812V117.402C142.062 119.456 145.764 121.115 150.337 121.115C154.91 121.115 158.613 119.456 158.613 117.402Z" fill="white"/>
<path d="M150.337 121.114C154.907 121.114 158.613 119.452 158.613 117.402C158.613 115.352 154.907 113.689 150.337 113.689C145.767 113.689 142.062 115.352 142.062 117.402C142.062 119.452 145.767 121.114 150.337 121.114Z" fill="#FFCF2D"/>
<path fill-rule="evenodd" clip-rule="evenodd" d="M141.75 102.719H158.924V125.802C158.924 128.987 157.191 131.763 154.62 133.247L154.465 132.978C154.465 132.984 154.465 132.99 154.465 132.996L154.609 133.248C153.35 133.969 151.887 134.388 150.337 134.388C148.81 134.388 147.377 133.991 146.13 133.289H146.126L146.081 133.263C146.075 133.26 146.07 133.257 146.064 133.254C146.062 133.252 146.06 133.251 146.057 133.249L146.054 133.247C143.484 131.763 141.75 128.987 141.75 125.802V102.719ZM154.38 132.667C156.727 131.279 158.302 128.726 158.302 125.802V103.341H142.373V125.802C142.373 128.734 143.955 131.292 146.312 132.677H146.313L146.357 132.702C146.364 132.706 146.37 132.709 146.376 132.713C146.378 132.714 146.381 132.716 146.383 132.717L146.385 132.718C147.552 133.387 148.899 133.766 150.337 133.766C151.774 133.766 153.131 133.377 154.3 132.708L154.371 132.667H154.38Z" fill="#FFCF2D"/>
<path d="M150.337 106.743C154.959 106.743 158.706 105.081 158.706 103.031C158.706 100.98 154.959 99.3184 150.337 99.3184C145.715 99.3184 141.968 100.98 141.968 103.031C141.968 105.081 145.715 106.743 150.337 106.743Z" fill="white"/>
<path fill-rule="evenodd" clip-rule="evenodd" d="M142.814 101.764C142.422 102.175 142.228 102.602 142.228 103.03C142.228 103.458 142.422 103.886 142.814 104.296C143.206 104.708 143.787 105.091 144.525 105.418C145.999 106.072 148.054 106.483 150.337 106.483C152.621 106.483 154.675 106.072 156.15 105.418C156.887 105.091 157.468 104.708 157.861 104.296C158.252 103.886 158.447 103.458 158.447 103.03C158.447 102.602 158.252 102.175 157.861 101.764C157.468 101.352 156.887 100.969 156.15 100.642C154.675 99.9882 152.621 99.5771 150.337 99.5771C148.054 99.5771 145.999 99.9882 144.525 100.642C143.787 100.969 143.206 101.352 142.814 101.764ZM144.314 100.168C145.869 99.4786 147.999 99.0586 150.337 99.0586C152.676 99.0586 154.805 99.4786 156.36 100.168C157.137 100.513 157.782 100.93 158.236 101.406C158.691 101.884 158.965 102.433 158.965 103.03C158.965 103.627 158.691 104.177 158.236 104.654C157.782 105.13 157.137 105.548 156.36 105.892C154.805 106.582 152.676 107.002 150.337 107.002C147.999 107.002 145.869 106.582 144.314 105.892C143.537 105.548 142.892 105.13 142.438 104.654C141.983 104.177 141.709 103.627 141.709 103.03C141.709 102.433 141.983 101.884 142.438 101.406C142.892 100.93 143.537 100.513 144.314 100.168Z" fill="#FFCF2D"/>
<path d="M150.337 103.59C151.013 103.59 151.561 103.042 151.561 102.366C151.561 101.69 151.013 101.143 150.337 101.143C149.661 101.143 149.113 101.69 149.113 102.366C149.113 103.042 149.661 103.59 150.337 103.59Z" fill="#FFCF2D"/>
<path d="M147.641 128.581C148.236 128.581 148.719 128.098 148.719 127.502C148.719 126.907 148.236 126.424 147.641 126.424C147.045 126.424 146.562 126.907 146.562 127.502C146.562 128.098 147.045 128.581 147.641 128.581Z" fill="white"/>
<path fill-rule="evenodd" clip-rule="evenodd" d="M147.641 126.684C147.188 126.684 146.821 127.051 146.821 127.504C146.821 127.956 147.188 128.323 147.641 128.323C148.093 128.323 148.46 127.956 148.46 127.504C148.46 127.051 148.093 126.684 147.641 126.684ZM146.303 127.504C146.303 126.765 146.902 126.166 147.641 126.166C148.379 126.166 148.978 126.765 148.978 127.504C148.978 128.242 148.379 128.841 147.641 128.841C146.902 128.841 146.303 128.242 146.303 127.504Z" fill="#FFCF2D"/>
<path d="M154.112 118.295C154.605 118.295 155.004 117.896 155.004 117.404C155.004 116.911 154.605 116.512 154.112 116.512C153.62 116.512 153.22 116.911 153.22 117.404C153.22 117.896 153.62 118.295 154.112 118.295Z" fill="white"/>
<path d="M145.484 124.985C145.976 124.985 146.376 124.586 146.376 124.093C146.376 123.6 145.976 123.201 145.484 123.201C144.991 123.201 144.592 123.6 144.592 124.093C144.592 124.586 144.991 124.985 145.484 124.985Z" fill="#FFCF2D"/>
<path d="M158.291 176.229H142.383C142.092 176.229 142.009 175.846 142.258 175.711L147.817 173.606C148.688 173.274 149.269 172.434 149.269 171.501V138.359C149.269 136.16 148.128 134.097 146.23 132.987C147.443 133.682 148.843 134.076 150.337 134.076C151.84 134.076 153.24 133.671 154.454 132.977C152.546 134.076 151.405 136.15 151.405 138.348V171.49C151.405 172.424 151.986 173.264 152.857 173.595L158.415 175.7C158.664 175.846 158.581 176.229 158.291 176.229Z" fill="white"/>
<path fill-rule="evenodd" clip-rule="evenodd" d="M152.822 133.967C152.037 134.207 151.204 134.337 150.337 134.337C149.47 134.337 148.632 134.208 147.843 133.967C148.918 135.151 149.528 136.721 149.528 138.361V171.503C149.528 172.544 148.881 173.48 147.909 173.85L147.909 173.851L142.374 175.947C142.374 175.947 142.374 175.947 142.373 175.947C142.373 175.948 142.372 175.949 142.372 175.95C142.371 175.953 142.37 175.958 142.371 175.965C142.372 175.968 142.373 175.97 142.374 175.972C142.374 175.972 142.374 175.972 142.375 175.972C142.376 175.972 142.379 175.972 142.383 175.972H158.291C158.295 175.972 158.298 175.972 158.299 175.972C158.299 175.972 158.3 175.972 158.3 175.972C158.301 175.97 158.302 175.968 158.303 175.964C158.304 175.957 158.304 175.949 158.301 175.943C158.3 175.941 158.299 175.939 158.297 175.936C158.297 175.936 158.296 175.935 158.295 175.934L152.765 173.84L152.765 173.84C151.793 173.47 151.146 172.534 151.146 171.493V138.35C151.146 136.718 151.751 135.149 152.822 133.967ZM150.337 133.819C151.793 133.819 153.149 133.427 154.325 132.754L154.583 133.204C152.76 134.254 151.664 136.24 151.664 138.35V171.493C151.664 172.318 152.178 173.061 152.949 173.355L152.949 173.355M147.725 173.366C147.725 173.366 147.725 173.366 147.725 173.366L142.15 175.477L142.135 175.485C141.896 175.615 141.817 175.869 141.866 176.081C141.915 176.297 142.103 176.491 142.383 176.491H158.291C158.572 176.491 158.759 176.296 158.808 176.079C158.857 175.866 158.778 175.614 158.546 175.479L158.528 175.468L152.949 173.355M147.725 173.366C148.496 173.072 149.01 172.328 149.01 171.503V138.361C149.01 136.251 147.915 134.274 146.099 133.213L146.359 132.764C147.534 133.437 148.89 133.819 150.337 133.819" fill="#FFCF2D"/>
<path d="M144.447 90.5745C145.225 90.5745 145.857 89.9431 145.857 89.1642C145.857 88.3853 145.225 87.7539 144.447 87.7539C143.668 87.7539 143.036 88.3853 143.036 89.1642C143.036 89.9431 143.668 90.5745 144.447 90.5745Z" fill="#FFCF2D"/>
<path d="M154.111 92.8477C154.787 92.8477 155.335 92.2998 155.335 91.624C155.335 90.9482 154.787 90.4004 154.111 90.4004C153.436 90.4004 152.888 90.9482 152.888 91.624C152.888 92.2998 153.436 92.8477 154.111 92.8477Z" fill="white"/>
<path fill-rule="evenodd" clip-rule="evenodd" d="M154.112 90.6591C153.579 90.6591 153.147 91.0909 153.147 91.6235C153.147 92.1561 153.579 92.5879 154.112 92.5879C154.645 92.5879 155.076 92.1561 155.076 91.6235C155.076 91.0909 154.645 90.6591 154.112 90.6591ZM152.629 91.6235C152.629 90.8045 153.293 90.1406 154.112 90.1406C154.931 90.1406 155.595 90.8045 155.595 91.6235C155.595 92.4425 154.931 93.1064 154.112 93.1064C153.293 93.1064 152.629 92.4425 152.629 91.6235Z" fill="#FFCF2D"/>
<path d="M148.118 97.6176C148.611 97.6176 149.01 97.2183 149.01 96.7258C149.01 96.2333 148.611 95.834 148.118 95.834C147.626 95.834 147.227 96.2333 147.227 96.7258C147.227 97.2183 147.626 97.6176 148.118 97.6176Z" fill="white"/>
<path fill-rule="evenodd" clip-rule="evenodd" d="M148.117 96.0927C147.768 96.0927 147.485 96.3759 147.485 96.7253C147.485 97.0746 147.768 97.3578 148.117 97.3578C148.467 97.3578 148.75 97.0746 148.75 96.7253C148.75 96.3759 148.467 96.0927 148.117 96.0927ZM146.966 96.7253C146.966 96.0896 147.482 95.5742 148.117 95.5742C148.753 95.5742 149.269 96.0896 149.269 96.7253C149.269 97.361 148.753 97.8763 148.117 97.8763C147.482 97.8763 146.966 97.361 146.966 96.7253Z" fill="#FFCF2D"/>
<path d="M147.652 86.7596C148.059 86.7596 148.389 86.43 148.389 86.0234C148.389 85.6167 148.059 85.2871 147.652 85.2871C147.246 85.2871 146.916 85.6167 146.916 86.0234C146.916 86.43 147.246 86.7596 147.652 86.7596Z" fill="#FFCF2D"/>
<path d="M160.997 149.561V170.435H144.363C142.963 170.435 141.833 169.305 141.833 167.905V166.194C141.833 165.426 142.175 164.742 142.714 164.275C142.175 163.809 141.833 163.124 141.833 162.357V160.646C141.833 159.972 142.102 159.35 142.538 158.904C142.102 158.448 141.833 157.836 141.833 157.162V155.451C141.833 154.756 142.113 154.123 142.569 153.657C142.113 153.2 141.833 152.568 141.833 151.873V149.571H160.997V149.561Z" fill="#E57281"/>
<path fill-rule="evenodd" clip-rule="evenodd" d="M142.123 161.951C142.266 161.951 142.382 162.067 142.382 162.21C142.382 163.654 143.552 164.824 144.995 164.824H158.456C159.899 164.824 161.069 163.654 161.069 162.21C161.069 162.067 161.185 161.951 161.328 161.951C161.472 161.951 161.588 162.067 161.588 162.21C161.588 163.94 160.186 165.342 158.456 165.342H144.995C143.265 165.342 141.863 163.94 141.863 162.21C141.863 162.067 141.979 161.951 142.123 161.951Z" fill="#9A3B82"/>
<path fill-rule="evenodd" clip-rule="evenodd" d="M142.123 156.777C142.266 156.777 142.382 156.893 142.382 157.037C142.382 158.48 143.552 159.65 144.995 159.65H158.456C159.899 159.65 161.069 158.48 161.069 157.037C161.069 156.893 161.185 156.777 161.328 156.777C161.472 156.777 161.588 156.893 161.588 157.037C161.588 158.766 160.186 160.168 158.456 160.168H144.995C143.265 160.168 141.863 158.766 141.863 157.037C141.863 156.893 141.979 156.777 142.123 156.777Z" fill="#9A3B82"/>
<path fill-rule="evenodd" clip-rule="evenodd" d="M142.123 151.604C142.266 151.604 142.382 151.72 142.382 151.863C142.382 153.306 143.552 154.476 144.995 154.476H158.456C159.899 154.476 161.069 153.306 161.069 151.863C161.069 151.72 161.185 151.604 161.328 151.604C161.472 151.604 161.588 151.72 161.588 151.863C161.588 153.593 160.186 154.994 158.456 154.994H144.995C143.265 154.994 141.863 153.593 141.863 151.863C141.863 151.72 141.979 151.604 142.123 151.604Z" fill="#9A3B82"/>
<path fill-rule="evenodd" clip-rule="evenodd" d="M161.328 147.725C161.472 147.725 161.588 147.841 161.588 147.984V167.386C161.588 169.116 160.186 170.518 158.456 170.518H144.86C144.717 170.518 144.601 170.402 144.601 170.258C144.601 170.115 144.717 169.999 144.86 169.999H158.456C159.899 169.999 161.069 168.829 161.069 167.386V147.984C161.069 147.841 161.185 147.725 161.328 147.725Z" fill="#9A3B82"/>
<path fill-rule="evenodd" clip-rule="evenodd" d="M158.268 146.501C157.416 146.501 156.723 147.194 156.723 148.046C156.723 149.03 155.922 149.819 154.95 149.819H147.234C146.635 149.819 146.146 149.33 146.146 148.73C146.146 148.131 146.635 147.642 147.234 147.642H148.614C148.757 147.642 148.873 147.758 148.873 147.901C148.873 148.044 148.757 148.16 148.614 148.16H147.234C146.921 148.16 146.664 148.417 146.664 148.73C146.664 149.044 146.921 149.301 147.234 149.301H154.95C155.638 149.301 156.205 148.742 156.205 148.046C156.205 146.907 157.13 145.982 158.268 145.982H159.523C160.662 145.982 161.587 146.907 161.587 148.046V151.406C161.587 151.549 161.471 151.665 161.328 151.665C161.185 151.665 161.068 151.549 161.068 151.406V148.046C161.068 147.194 160.376 146.501 159.523 146.501H158.268Z" fill="#9A3B82"/>
<path d="M121.175 207.156V246.002H76.2812V223.115C77.2561 225.666 88.6842 224.038 100.88 219.372C111.852 215.172 120.324 210.008 121.175 207.156Z" fill="#FE5244"/>
<path d="M121.175 206.026C120.314 208.878 111.852 214.042 100.87 218.242C88.6844 222.908 77.2563 224.536 76.2711 221.985C75.2859 219.434 85.1378 213.658 97.3333 208.992C109.519 204.325 120.2 202.614 121.175 205.165C121.278 205.425 121.278 205.715 121.175 206.026Z" fill="#66B0F0"/>
<path d="M111.665 180.267V213.181L109.187 214.435C106.677 215.659 103.867 216.872 100.88 218.013C95.3943 220.118 90.0535 221.601 85.7602 222.368L88.2283 212.673L92.2521 196.848C90.3439 196.848 88.5395 195.998 87.3261 194.525L70.8062 175.735C73.6373 173.153 77.8684 176.668 77.8684 176.668L76.2817 168.569C75.9084 166.651 76.4684 164.66 77.7854 163.219L82.8046 157.712C83.8002 156.623 85.5943 157.049 86.0091 158.459L89.5765 170.768C89.5765 170.768 98.4328 177.529 100.092 177.529C101.969 177.529 102.622 176.005 99.1172 170.996C96.4832 167.232 99.1172 164.484 99.1172 164.484L107.694 171.701C110.213 173.837 111.665 176.969 111.665 180.267Z" fill="white"/>
<path fill-rule="evenodd" clip-rule="evenodd" d="M82.9962 157.887C82.9961 157.887 82.9961 157.887 82.996 157.887L77.9768 163.393C76.7152 164.774 76.1786 166.682 76.5362 168.519C76.5362 168.52 76.5362 168.52 76.5362 168.52L78.2628 177.333L77.7028 176.868L77.7007 176.866C77.699 176.864 77.6963 176.862 77.6927 176.859C77.6854 176.853 77.6741 176.844 77.6591 176.832C77.629 176.809 77.584 176.773 77.5253 176.729C77.4078 176.641 77.236 176.517 77.0208 176.376C76.5895 176.093 75.9882 175.744 75.3039 175.474C73.9929 174.958 72.4459 174.756 71.1748 175.761L87.5236 194.357L87.5262 194.36C88.6903 195.773 90.4213 196.589 92.2521 196.589H92.5855L88.4796 212.736L86.1111 222.041C90.3167 221.257 95.4825 219.806 100.787 217.771L100.788 217.771C103.767 216.633 106.57 215.423 109.072 214.203C109.072 214.203 109.073 214.202 109.073 214.202L111.406 213.021V180.266C111.406 177.045 109.988 173.986 107.526 171.899C107.526 171.899 107.526 171.899 107.526 171.899L99.1497 164.85C99.0964 164.919 99.0328 165.007 98.9642 165.113C98.7691 165.413 98.5348 165.851 98.3788 166.399C98.0697 167.486 98.0597 169.032 99.3297 170.847C100.211 172.106 100.836 173.154 101.246 174.018C101.655 174.88 101.86 175.576 101.882 176.13C101.904 176.693 101.738 177.128 101.389 177.413C101.052 177.688 100.589 177.788 100.092 177.788C99.8216 177.788 99.4548 177.658 99.0553 177.474C98.6425 177.283 98.1517 177.014 97.6163 176.695C96.5447 176.056 95.2762 175.207 94.0637 174.361C92.8503 173.514 91.6893 172.667 90.832 172.032C90.4032 171.715 90.0502 171.45 89.8043 171.265C89.6813 171.173 89.5852 171.1 89.5197 171.05C89.4869 171.025 89.4618 171.006 89.4449 170.993L89.4193 170.974C89.4192 170.974 89.4192 170.974 89.5765 170.768L89.4192 170.974L89.3513 170.922L85.7604 158.532C85.7603 158.531 85.7602 158.531 85.7602 158.531C85.4014 157.313 83.854 156.949 82.9962 157.887ZM89.8017 170.613L86.2581 158.386L86.2578 158.385C85.7866 156.783 83.7465 156.298 82.6133 157.537L82.613 157.537L77.594 163.043C76.2216 164.546 75.6382 166.62 76.0272 168.619L77.4857 176.063C77.4293 176.025 77.3691 175.984 77.3052 175.942C76.8548 175.647 76.2213 175.278 75.4939 174.992C74.0491 174.423 72.1573 174.152 70.6314 175.543L70.4434 175.715L87.1287 194.693C88.3208 196.138 90.0603 197.006 91.9207 197.099L87.9771 212.608L85.4097 222.694L85.8058 222.623C90.1173 221.853 95.4738 220.365 100.973 218.255C100.973 218.255 100.973 218.255 100.973 218.255L100.88 218.013L100.973 218.255C100.973 218.255 100.973 218.255 100.973 218.255C103.966 217.112 106.783 215.895 109.3 214.668L109.302 214.667L109.304 214.666L111.925 213.34V180.266C111.925 176.892 110.439 173.689 107.861 171.503L99.0982 164.129L98.9301 164.304L99.1172 164.483C98.9301 164.304 98.93 164.304 98.9298 164.304L98.9288 164.305L98.9265 164.308C98.9247 164.31 98.9222 164.312 98.9192 164.316C98.9132 164.322 98.9048 164.331 98.8943 164.343C98.8732 164.367 98.8438 164.401 98.8078 164.446C98.7359 164.534 98.6379 164.664 98.5295 164.83C98.313 165.163 98.0533 165.648 97.8801 166.257C97.5307 167.486 97.5407 169.195 98.9048 171.144C99.7761 172.389 100.384 173.411 100.778 174.241C101.174 175.074 101.346 175.697 101.364 176.151C101.382 176.595 101.252 176.855 101.06 177.012C100.856 177.179 100.534 177.27 100.092 177.27C99.9477 177.27 99.6747 177.188 99.2724 177.003C98.8832 176.823 98.4099 176.564 97.8817 176.25C96.8261 175.621 95.5694 174.779 94.3605 173.936C93.1523 173.092 91.9955 172.249 91.1405 171.616C90.713 171.299 90.3612 171.036 90.1163 170.851C89.9938 170.759 89.8981 170.686 89.8331 170.637C89.8217 170.628 89.8112 170.62 89.8017 170.613Z" fill="#FFCF2D"/>
<path fill-rule="evenodd" clip-rule="evenodd" d="M79.8433 160.598C80.9368 159.397 82.8524 159.867 83.3017 161.415L86.7114 173.179L92.9213 178.147L92.5974 178.551L86.2591 173.481L82.8037 161.56C82.8037 161.56 82.8037 161.56 82.8037 161.56C82.4648 160.392 81.0412 160.052 80.2266 160.947L79.8433 160.598Z" fill="#FFCF2D"/>
<path fill-rule="evenodd" clip-rule="evenodd" d="M76.8462 164.061C77.8853 162.915 79.7717 163.357 80.2013 164.837L83.4248 175.969L88.8167 180.356L88.4894 180.759L82.9718 176.269L79.7034 164.982C79.3863 163.89 77.9957 163.565 77.2304 164.409L76.8462 164.061Z" fill="#FFCF2D"/>
<path fill-rule="evenodd" clip-rule="evenodd" d="M78.0241 176.48L83.9974 181.489L83.6642 181.886L77.6909 176.878L78.0241 176.48Z" fill="#FFCF2D"/>
<path fill-rule="evenodd" clip-rule="evenodd" d="M99.2307 197.108H92.2515V196.59H99.2307V197.108Z" fill="#FFCF2D"/>
<path d="M111.665 204.697V213.398C108.575 215.036 104.893 216.695 100.88 218.24C95.3837 220.345 90.043 221.828 85.7393 222.596L88.2281 212.889C90.9867 211.562 94.077 210.235 97.3437 208.99C102.622 206.979 107.621 205.506 111.665 204.697Z" fill="#FFCF2D"/>
<path d="M46.695 203.555V245.999H0.0698242V183.531C0.982416 186.59 10.7409 192.968 22.8535 198.298C35.7439 203.991 46.4253 206.335 46.695 203.555Z" fill="#66B0F0"/>
<path d="M46.6951 202.426C46.4151 205.206 35.744 202.852 22.8537 197.169C10.7411 191.828 0.982595 185.451 0.0700031 182.402C0.00778097 182.205 -0.0129635 182.019 0.00777718 181.853C0.277406 179.074 10.9589 181.427 23.8492 187.11C36.7396 192.793 46.9751 199.647 46.6951 202.426Z" fill="#9A3B82"/>
<path d="M19.1014 141.546C20.211 139.264 22.5236 137.812 25.0644 137.812H32.3962L32.7799 167.284L37.8925 194.37L39.5206 202.977C35.2066 202.023 29.3162 200.021 22.8658 197.18C19.2155 195.573 14.6421 193.188 11.5933 191.508V155.649C11.5933 155.161 11.6866 154.674 11.8525 154.218L19.1014 141.546Z" fill="#A0505A"/>
<path d="M39.5079 202.977C35.1939 202.023 29.3035 200.021 22.8531 197.18C19.2028 195.573 14.6295 193.187 11.5806 191.508V182.496C14.9095 183.564 19.8354 185.348 23.8487 187.111C29.262 189.496 33.9909 191.953 37.8902 194.37L39.5079 202.977Z" fill="#73325A"/>
<path d="M66.8134 104.682L27.8105 176.441C26.369 179.096 22.3972 179.728 18.9439 177.851C15.4905 175.974 13.8624 172.303 15.3039 169.638L54.3068 97.8789L66.8134 104.682Z" fill="white"/>
<path fill-rule="evenodd" clip-rule="evenodd" d="M54.2028 97.5254L67.1649 104.576L28.0383 176.563C27.2711 177.976 25.8386 178.835 24.1723 179.1C22.5064 179.365 20.5926 179.041 18.82 178.077C15.2997 176.164 13.5384 172.356 15.0757 169.513L15.076 169.513L54.2028 97.5254ZM54.4107 98.2287L15.5318 169.76C14.1863 172.248 15.6813 175.781 19.0676 177.622C20.7483 178.535 22.5471 178.833 24.0908 178.588C25.6342 178.342 26.9083 177.557 27.5826 176.316L66.4618 104.784L54.4107 98.2287Z" fill="#FFCF2D"/>
<path d="M66.8063 104.698C68.2503 102.041 66.6225 98.3665 63.1705 96.4905C59.7185 94.6144 55.7495 95.2474 54.3055 97.9042C52.8615 100.561 54.4893 104.236 57.9413 106.112C61.3934 107.988 65.3623 107.355 66.8063 104.698Z" fill="#66B0F0"/>
<path fill-rule="evenodd" clip-rule="evenodd" d="M54.5328 98.0276C53.1854 100.507 54.6794 104.044 58.0647 105.883C61.4499 107.723 65.2306 107.053 66.5781 104.574C67.9255 102.094 66.4315 98.5575 63.0462 96.7178C59.661 94.8781 55.8802 95.5484 54.5328 98.0276ZM57.8171 106.339C54.2983 104.427 52.5367 100.614 54.0772 97.78C55.6178 94.9456 59.775 94.3499 63.2938 96.2622C66.8126 98.1745 68.5742 101.987 67.0336 104.821C65.4931 107.656 61.3359 108.251 57.8171 106.339Z" fill="#FFCF2D"/>
<path d="M41.333 132.15L59.7611 117.104L59.4708 122.454L65.3715 123.927L51.9315 132.223C55.5404 131.601 59.8856 131.092 63.4633 131.372C67.7256 131.704 66.2945 136.692 64.6974 140.954C68.4307 140.591 80.9478 133.011 85.6663 134.442C88.5492 135.313 87.5122 141.193 86.6826 144.439C87.8855 144.501 93.9729 144.428 93.9729 144.428L90.7581 147.363L92.5211 150.297C85.6767 150.598 85.5937 149.52 86.4544 144.667C86.5996 139.388 80.7507 144.459 68.2959 147.435C62.1256 148.908 62.9241 144.895 64.4485 140.716C63.8367 138.797 59.2634 136.713 44.5686 140.55L41.333 132.15Z" fill="#FE5244"/>
<path d="M41.6026 141.316C44.6095 141.316 47.0471 138.879 47.0471 135.872C47.0471 132.865 44.6095 130.428 41.6026 130.428C38.5958 130.428 36.1582 132.865 36.1582 135.872C36.1582 138.879 38.5958 141.316 41.6026 141.316Z" fill="white"/>
<path fill-rule="evenodd" clip-rule="evenodd" d="M41.6031 130.686C38.7394 130.686 36.4179 133.008 36.4179 135.871C36.4179 138.735 38.7394 141.056 41.6031 141.056C44.4668 141.056 46.7883 138.735 46.7883 135.871C46.7883 133.008 44.4668 130.686 41.6031 130.686ZM35.8994 135.871C35.8994 132.721 38.453 130.168 41.6031 130.168C44.7532 130.168 47.3068 132.721 47.3068 135.871C47.3068 139.021 44.7532 141.575 41.6031 141.575C38.453 141.575 35.8994 139.021 35.8994 135.871Z" fill="#FE5244"/>
<path d="M39.7259 137.812V138.155C39.7259 141.639 36.9052 144.47 33.4104 144.47H26.7837V137.812H39.7259Z" fill="#A0505A"/>
<path d="M47.7944 150.598L46.0418 154.704L43.9988 159.506L42.8892 162.108L41.1988 166.08C41.1573 166.184 41.0951 166.298 41.0433 166.391C41.0433 166.402 41.0329 166.402 41.0329 166.412C40.4936 167.345 39.4462 167.926 38.2951 167.926H24.8655C23.2373 167.926 22.1277 166.381 22.7292 164.96L23.704 162.668L25.8507 157.629L27.6966 153.284L29.3247 149.468C29.8018 148.348 30.9529 147.611 32.2388 147.611H45.6684C47.2862 147.632 48.3958 149.177 47.7944 150.598Z" fill="#A0505A"/>
<path fill-rule="evenodd" clip-rule="evenodd" d="M30.4973 152.567C29.7008 152.567 28.9616 152.909 28.45 153.477C28.3542 153.583 28.1903 153.592 28.0839 153.496C27.9774 153.4 27.9688 153.237 28.0646 153.13C28.673 152.454 29.5516 152.049 30.4973 152.049H43.3254C44.8301 152.049 45.9227 153.346 45.7713 154.732C45.7558 154.874 45.6278 154.977 45.4854 154.961C45.3431 154.946 45.2403 154.818 45.2559 154.675C45.3742 153.593 44.5171 152.567 43.3254 152.567H30.4973Z" fill="#73325A"/>
<path fill-rule="evenodd" clip-rule="evenodd" d="M28.6406 157.036C27.8899 157.036 27.1988 157.33 26.698 157.831C26.5967 157.932 26.4326 157.932 26.3313 157.831C26.2301 157.73 26.2301 157.566 26.3313 157.465C26.9297 156.866 27.7527 156.518 28.6406 156.518H41.4687C43.1106 156.518 44.2537 158.048 43.8341 159.563C43.7959 159.701 43.653 159.782 43.5151 159.744C43.3771 159.705 43.2962 159.563 43.3344 159.425C43.6614 158.244 42.772 157.036 41.4687 157.036H28.6406Z" fill="#73325A"/>
<path fill-rule="evenodd" clip-rule="evenodd" d="M26.577 162.118C25.8554 162.118 25.1826 162.393 24.6808 162.867C24.5767 162.965 24.4126 162.96 24.3143 162.856C24.2161 162.752 24.2209 162.588 24.325 162.489C24.9225 161.926 25.7223 161.6 26.577 161.6H39.4051C41.0934 161.6 42.2718 163.244 41.7238 164.807C41.6764 164.942 41.5285 165.013 41.3934 164.966C41.2583 164.918 41.1872 164.77 41.2345 164.635C41.6614 163.418 40.7449 162.118 39.4051 162.118H26.577Z" fill="#73325A"/>
</g>
<defs>
<clipPath id="clip0_2234_9993">
<rect width="354" height="246" fill="white"/>
</clipPath>
</defs>
</svg>
